<?xml version="1.0" encoding="utf-8"?>
<svg version="1.1" id="Layer_1"
xmlns="http://www.w3.org/2000/svg"
xmlns:xlink="http://www.w3.org/1999/xlink"
width="1199px" height="1200px"
xml:space="preserve">
<g id="PathID_1" transform="matrix(1.08846, 0, 0, 1.08846, 600.55, 598.55)" opacity="1">
<path style="fill:#FFFAFA;fill-opacity:1" d="M542.9 0Q542.9 -222.9 383.85 -380.65Q224.8 -538.4 0 -538.4Q-224.8 -538.4 -383.85 -380.65Q-542.9 -222.9 -542.9 0Q-542.9 222.9 -383.85 380.65Q-224.8 538.4 0 538.4Q224.8 538.4 383.85 380.65Q542.9 222.9 542.9 0" />
</g>
<g id="PathID_2" transform="matrix(1.08846, 0, 0, 1.08846, 600.55, 598.55)" opacity="1">
<path style="fill:none;stroke-width:1;stroke-linecap:round;stroke-linejoin:round;stroke-miterlimit:3;stroke:#000000;stroke-opacity:1" d="M383.85 380.6Q224.8 538.35 0 538.35Q-224.75 538.35 -383.8 380.6Q-542.85 222.85 -542.85 0Q-542.85 -222.9 -383.8 -380.65Q-224.75 -538.4 0 -538.4Q224.8 -538.4 383.85 -380.65Q542.9 -222.9 542.9 0Q542.9 222.85 383.85 380.6z" />
</g>
<g id="PathID_3" transform="matrix(29.6194, 0, 0, 29.6194, 48.45, 206.65)" opacity="1">
<path style="fill:#FF8E2A;fill-opacity:1" d="M37.25 8.55L37.1 9.5L33.35 25.6Q33.1 26.6 32.25 27.25Q31.4 27.95 30.45 27.95L6.8 27.95Q5.85 27.95 5 27.25Q4.15 26.6 3.9 25.6L0.05 9.05Q-0.15 8.15 0.25 7.45Q0.65 6.75 1.45 6.55L1.05 4.5Q0.95 3.6 1.4 3Q2 2.25 3 2.25L10.4 2.25Q11.35 2.25 12.2 2.95Q13.05 3.6 13.25 4.6L13.7 6.5L25.2 6.5Q26.2 6.5 27.05 7.2Q27.9 7.9 28.1 8.85L31.65 24.1L31.95 24.2L32.35 24.05L32.45 23.8L31.9 21.45L31.85 21.3Q33.7 20.55 33.7 18.55L33.7 6.55L35.8 6.55Q36.45 6.7 36.95 7.35Q37.3 7.9 37.25 8.55M32.9 2.05L32.9 18.55Q32.9 19.95 31.65 20.45L28.9 8.65Q28.6 7.4 27.55 6.5Q26.5 5.65 25.2 5.65L14.35 5.65L14.1 4.4Q13.8 3.15 12.75 2.25Q11.7 1.4 10.4 1.4L5.8 1.4Q6.2 0 7.65 0L30.9 0Q31.75 0 32.3 0.6Q32.9 1.2 32.9 2.05" />
</g>
<g id="PathID_4" transform="matrix(29.6194, 0, 0, 29.6194, 48.45, 206.65)" opacity="1">
</g>
<g id="PathID_5" transform="matrix(10.3758, 0, 0, 11.7949, 323.9, 252.5)" opacity="1">
<path style="fill:#FF2C0B;fill-opacity:1" d="M45.6 40.4L50.65 40.4L36.15 62.35L21.6 40.4L26.65 40.4L26.65 24.6L45.6 24.6L45.6 40.4M24 21.95L24 37.75L5.05 37.75L5.05 21.95L0 21.95L14.5 0L29 21.95L24 21.95" />
</g>
<g id="PathID_6" transform="matrix(10.3758, 0, 0, 11.7949, 323.9, 252.5)" opacity="1">
</g>
</svg>